<?xml version="1.0" encoding="utf-8"?><svg viewBox="0 0 24 24" xmlns="http://www.w3.org/2000/svg" xmlns:xlink="http://www.w3.org/1999/xlink"><style>:root>svg{display:none}:root>svg:target{display:block}</style><svg fill="none" viewBox="0 0 24 24" id="arrow" xmlns="http://www.w3.org/2000/svg"><path d="M4 12h16m0 0-6-6m6 6-6 6" stroke="currentColor" stroke-width="2" stroke-linecap="round" stroke-linejoin="round"/></svg><svg fill="none" viewBox="0 0 10 10" id="arrow-up-right" xmlns="http://www.w3.org/2000/svg"><path d="M1.667.833C1.667.373 2.04 0 2.5 0h6.667c.46 0 .833.373.833.833V7.5a.833.833 0 0 1-1.667 0V2.845l-6.91 6.91A.833.833 0 1 1 .244 8.578l6.91-6.91H2.5a.833.833 0 0 1-.833-.834Z" fill="currentColor"/></svg><svg fill="none" viewBox="0 0 18 14" id="burger" xmlns="http://www.w3.org/2000/svg"><path d="M0 1.167C0 .522.504 0 1.125 0h15.75C17.496 0 18 .522 18 1.167c0 .644-.504 1.166-1.125 1.166H1.125C.504 2.333 0 1.811 0 1.167ZM0 7c0-.644.504-1.167 1.125-1.167h15.75C17.496 5.833 18 6.356 18 7s-.504 1.167-1.125 1.167H1.125C.504 8.167 0 7.644 0 7Zm0 5.833c0-.644.504-1.166 1.125-1.166h15.75c.621 0 1.125.522 1.125 1.166 0 .645-.504 1.167-1.125 1.167H1.125C.504 14 0 13.478 0 12.833Z" fill="#0D0D0D"/></svg><svg fill="none" viewBox="0 0 21 21" id="check" xmlns="http://www.w3.org/2000/svg"><path d="M14.832 7.126a.5.5 0 0 1 .042.706l-5.334 6a.5.5 0 0 1-.747 0l-2.667-3a.5.5 0 0 1 .748-.664l2.293 2.58 4.96-5.58a.5.5 0 0 1 .705-.042Z" fill="#fff" stroke="#fff" stroke-linecap="round" stroke-linejoin="round"/></svg><svg fill="none" viewBox="0 0 14 14" id="close" xmlns="http://www.w3.org/2000/svg"><path d="M.293.293a1 1 0 0 1 1.414 0L7 5.586 12.293.293a1 1 0 1 1 1.414 1.414L8.414 7l5.293 5.293a1 1 0 0 1-1.414 1.414L7 8.414l-5.293 5.293a1 1 0 0 1-1.414-1.414L5.586 7 .293 1.707a1 1 0 0 1 0-1.414Z" fill="#0D0D0D"/></svg><svg fill="none" viewBox="0 0 20 16" id="email-solid" xmlns="http://www.w3.org/2000/svg"><path fill-rule="evenodd" clip-rule="evenodd" d="M1.172 1.172C0 2.343 0 4.229 0 8c0 3.771 0 5.657 1.172 6.828C2.343 16 4.229 16 8 16h4c3.771 0 5.657 0 6.828-1.172C20 13.657 20 11.771 20 8c0-3.771 0-5.657-1.172-6.828C17.657 0 15.771 0 12 0H8C4.229 0 2.343 0 1.172 1.172ZM16.576 3.52a.75.75 0 0 1-.096 1.056l-2.196 1.83c-.887.74-1.605 1.338-2.24 1.746-.66.425-1.303.693-2.044.693-.741 0-1.384-.268-2.045-.693-.634-.408-1.352-1.007-2.239-1.745L3.52 4.577a.75.75 0 0 1 .96-1.153L6.64 5.223C7.572 6 8.219 6.538 8.767 6.89c.529.34.888.455 1.233.455.345 0 .704-.114 1.233-.455.547-.352 1.195-.89 2.128-1.667l2.159-1.8a.75.75 0 0 1 1.056.097Z" fill="currentColor"/></svg><svg fill="none" viewBox="0 0 18 17" id="phone-solid" xmlns="http://www.w3.org/2000/svg"><path d="m12.556 10.906-.455.453s-1.083 1.076-4.038-1.862-1.872-4.014-1.872-4.014l.287-.286c.706-.702.773-1.83.156-2.654L5.374.86C4.61-.16 3.135-.295 2.26.575l-1.57 1.56c-.433.432-.723.99-.688 1.61.09 1.587.808 5 4.812 8.982 4.247 4.222 8.232 4.39 9.861 4.238.516-.048.964-.31 1.325-.67l1.42-1.412c.96-.953.69-2.588-.538-3.255l-1.91-1.039c-.806-.438-1.787-.309-2.417.317Z" fill="currentColor"/></svg></svg>