<?xml version="1.0" encoding="utf-8"?><svg viewBox="0 0 34 34" xmlns="http://www.w3.org/2000/svg" xmlns:xlink="http://www.w3.org/1999/xlink"><style>:root>svg{display:none}:root>svg:target{display:block}</style><svg fill="none" viewBox="0 0 24 24" id="arrow" xmlns="http://www.w3.org/2000/svg"><path d="M4 12h16m0 0-6-6m6 6-6 6" stroke="currentColor" stroke-width="2" stroke-linecap="round" stroke-linejoin="round"/></svg><svg fill="none" viewBox="0 0 14 16" id="arrow-down" xmlns="http://www.w3.org/2000/svg"><path fill-rule="evenodd" clip-rule="evenodd" d="M13.692 8.7a.951.951 0 0 1 0 1.403L7.744 15.71a1.097 1.097 0 0 1-1.488 0L.308 10.103a.951.951 0 0 1 0-1.402 1.097 1.097 0 0 1 1.487 0l4.153 3.915V.99C5.948.444 6.42 0 7 0c.58 0 1.052.444 1.052.991v11.625L12.205 8.7a1.097 1.097 0 0 1 1.487 0Z" fill="currentColor"/></svg><svg viewBox="0 0 10 6" fill="none" id="arrow-down-1" xmlns="http://www.w3.org/2000/svg"><path d="M9.79.22a.69.69 0 0 0-1.01 0L5 4.19 1.22.22a.69.69 0 0 0-1.01 0 .777.777 0 0 0 0 1.06l4.285 4.5a.69.69 0 0 0 1.01 0l4.286-4.5a.777.777 0 0 0 0-1.06Z" fill="currentColor"/></svg><svg fill="none" viewBox="0 0 18 14" id="arrow-left" xmlns="http://www.w3.org/2000/svg"><path d="M16.071 7H1.93m0 0 5.657-5.656M1.929 7l5.657 5.657" stroke="#161619" stroke-width="2" stroke-linecap="round" stroke-linejoin="round"/></svg><svg fill="none" viewBox="0 0 18 14" id="arrow-right" xmlns="http://www.w3.org/2000/svg"><path d="M1.929 7H16.07m0 0-5.657-5.656M16.071 7l-5.657 5.657" stroke="#161619" stroke-width="2" stroke-linecap="round" stroke-linejoin="round"/></svg><svg fill="none" viewBox="0 0 14 16" id="arrow-up" xmlns="http://www.w3.org/2000/svg"><path fill-rule="evenodd" clip-rule="evenodd" d="M13.692 7.3a.951.951 0 0 0 0-1.403L7.744.29a1.097 1.097 0 0 0-1.488 0L.308 5.897a.951.951 0 0 0 0 1.402c.41.387 1.076.387 1.487 0l4.153-3.915V15.01c0 .547.471.991 1.052.991.58 0 1.052-.444 1.052-.991V3.384L12.205 7.3c.41.387 1.076.387 1.487 0Z" fill="currentColor"/></svg><svg fill="none" viewBox="0 0 10 10" id="arrow-up-right" xmlns="http://www.w3.org/2000/svg"><path d="M1.667.833C1.667.373 2.04 0 2.5 0h6.667c.46 0 .833.373.833.833V7.5a.833.833 0 0 1-1.667 0V2.845l-6.91 6.91A.833.833 0 1 1 .244 8.578l6.91-6.91H2.5a.833.833 0 0 1-.833-.834Z" fill="currentColor"/></svg><svg viewBox="0 0 24 24" fill="none" id="basket" xmlns="http://www.w3.org/2000/svg"><path d="M3.044 2.041a.792.792 0 0 0-1.003.506.802.802 0 0 0 .502 1.012l.28.094c.715.24 1.188.401 1.536.565.33.154.473.279.564.407.092.128.164.304.205.668.044.385.045.889.045 1.649v2.85c0 1.459 0 2.635.123 3.56.128.96.402 1.768 1.038 2.41.637.642 1.439.918 2.39 1.047.917.124 2.083.124 3.53.124h7.46a.797.797 0 0 0 .794-.8c0-.441-.355-.8-.794-.8h-7.402c-1.519 0-2.577-.001-3.376-.11-.776-.105-1.187-.297-1.48-.593-.249-.25-.424-.587-.535-1.163h10.702c1.014 0 1.522 0 1.919-.265.397-.264.597-.734.997-1.675l.453-1.066c.856-2.015 1.284-3.022.814-3.742C21.336 6 20.249 6 18.076 6H6.754a9.68 9.68 0 0 0-.05-.888c-.058-.517-.186-.992-.494-1.423-.308-.43-.714-.703-1.181-.922-.44-.207-1-.395-1.663-.618l-.322-.108ZM8.61 18.8c.876 0 1.586.716 1.586 1.6 0 .884-.71 1.6-1.586 1.6a1.593 1.593 0 0 1-1.587-1.6c0-.884.71-1.6 1.587-1.6ZM18.128 18.8c.876 0 1.586.716 1.586 1.6 0 .884-.71 1.6-1.586 1.6a1.593 1.593 0 0 1-1.587-1.6c0-.884.71-1.6 1.587-1.6Z" fill="currentColor"/></svg><svg fill="none" viewBox="0 0 34 34" id="bayer" xmlns="http://www.w3.org/2000/svg"><rect width="34" height="34" rx="17" fill="#fff"/><path d="M17.803 9H16.2c-1.513 0-2.27 0-2.74.644-.332.455-.43 1.106-.458 2.18.659-.076 1.437-.076 2.316-.076h3.368c.879 0 1.657 0 2.316.075-.029-1.073-.126-1.724-.458-2.18C20.073 9 19.316 9 17.803 9Z" fill="#BC0500"/><path fill-rule="evenodd" clip-rule="evenodd" d="M18.75 12.765h-3.5c-2.475 0-3.712 0-4.481.692C10 14.149 10 15.264 10 17.492v.832c0 1.896 0 2.844.523 3.605.522.762 1.464 1.186 3.347 2.034C15.405 24.653 16.174 25 17 25c.826 0 1.594-.346 3.13-1.038 1.883-.847 2.825-1.271 3.347-2.033.523-.761.523-1.71.523-3.605v-.832c0-2.228 0-3.343-.769-4.035-.769-.692-2.006-.692-4.481-.692Zm-2.497 3.957c.332-.537.498-.806.747-.806s.415.269.747.806l.086.14c.095.152.142.228.216.278.073.05.165.07.349.107l.167.034c.645.132.968.197 1.045.42.077.222-.143.454-.584.917l-.113.12c-.125.132-.188.198-.216.28-.028.08-.019.169 0 .344l.017.16c.067.619.1.928-.101 1.066-.201.137-.503.012-1.108-.239l-.156-.065c-.172-.071-.258-.107-.349-.107-.091 0-.177.036-.349.107l-.156.065c-.605.25-.907.376-1.108.239-.201-.138-.168-.447-.101-1.066l.017-.16c.019-.175.028-.263 0-.345-.028-.081-.09-.147-.216-.279l-.114-.12c-.44-.463-.66-.695-.583-.917.077-.223.4-.288 1.045-.42l.167-.034c.184-.038.276-.056.35-.107.073-.05.12-.126.215-.279l.086-.139Z" fill="#BC0500"/></svg><svg fill="none" viewBox="0 0 24 24" id="box" xmlns="http://www.w3.org/2000/svg"><path d="m17.578 4.443-2-1.054C13.822 2.463 12.944 2 12 2s-1.822.463-3.578 1.389l-2 1.054C4.65 5.38 3.606 5.928 2.96 6.663L12 11.207l9.04-4.542c-.646-.736-1.688-1.285-3.462-2.22ZM21.748 7.993l-8.998 4.521V22c.718-.18 1.535-.61 2.828-1.292l2-1.055c2.151-1.134 3.227-1.702 3.825-2.721.597-1.02.597-2.288.597-4.825v-.117c0-1.902 0-3.091-.252-3.997ZM11.25 22v-9.486l-8.998-4.52C2 8.898 2 10.087 2 11.988v.118c0 2.537 0 3.806.597 4.825.598 1.02 1.674 1.587 3.825 2.721l2 1.055c1.293.682 2.11 1.112 2.828 1.292Z" fill="#BC0500"/></svg><svg fill="none" viewBox="0 0 18 14" id="burger" xmlns="http://www.w3.org/2000/svg"><path d="M0 1.167C0 .522.504 0 1.125 0h15.75C17.496 0 18 .522 18 1.167c0 .644-.504 1.166-1.125 1.166H1.125C.504 2.333 0 1.811 0 1.167ZM0 7c0-.644.504-1.167 1.125-1.167h15.75C17.496 5.833 18 6.356 18 7s-.504 1.167-1.125 1.167H1.125C.504 8.167 0 7.644 0 7Zm0 5.833c0-.644.504-1.166 1.125-1.166h15.75c.621 0 1.125.522 1.125 1.166 0 .645-.504 1.167-1.125 1.167H1.125C.504 14 0 13.478 0 12.833Z" fill="#0D0D0D"/></svg><svg fill="none" viewBox="0 0 24 24" id="card" xmlns="http://www.w3.org/2000/svg"><path d="M14 4h-4C6.229 4 4.343 4 3.172 5.172c-.844.843-1.08 2.057-1.146 4.078h19.948c-.066-2.021-.302-3.235-1.146-4.078C19.657 4 17.771 4 14 4ZM10 20h4c3.771 0 5.657 0 6.828-1.172C22 17.657 22 15.771 22 12c0-.442 0-.858-.002-1.25H2.002C2 11.142 2 11.558 2 12c0 3.771 0 5.657 1.172 6.828C4.343 20 6.229 20 10 20Z" fill="#BC0500"/><path fill-rule="evenodd" clip-rule="evenodd" d="M5.25 16a.75.75 0 0 1 .75-.75h4a.75.75 0 0 1 0 1.5H6a.75.75 0 0 1-.75-.75ZM11.75 16a.75.75 0 0 1 .75-.75H14a.75.75 0 0 1 0 1.5h-1.5a.75.75 0 0 1-.75-.75Z" fill="#fff"/></svg><svg fill="none" viewBox="0 0 24 24" id="cart" xmlns="http://www.w3.org/2000/svg"><path d="M3.044 2.041a.792.792 0 0 0-1.003.506.802.802 0 0 0 .502 1.012l.28.094c.715.24 1.188.401 1.536.565.33.154.473.279.564.407.092.128.164.304.205.668.044.385.045.889.045 1.649v2.85c0 1.459 0 2.635.123 3.56.128.96.402 1.768 1.038 2.41.637.642 1.439.918 2.39 1.047.917.124 2.083.124 3.53.124h7.46a.797.797 0 0 0 .794-.8c0-.441-.355-.8-.794-.8h-7.402c-1.519 0-2.577-.001-3.376-.11-.776-.105-1.187-.297-1.48-.593-.249-.25-.424-.587-.535-1.163h10.702c1.014 0 1.522 0 1.919-.265.397-.264.597-.734.997-1.675l.453-1.066c.856-2.015 1.284-3.022.814-3.742C21.336 6 20.249 6 18.076 6H6.754a9.68 9.68 0 0 0-.05-.888c-.058-.517-.186-.992-.494-1.423-.308-.43-.714-.703-1.181-.922-.44-.207-1-.395-1.663-.618l-.322-.108ZM8.61 18.8c.876 0 1.586.716 1.586 1.6 0 .884-.71 1.6-1.586 1.6a1.593 1.593 0 0 1-1.587-1.6c0-.884.71-1.6 1.587-1.6ZM18.128 18.8c.876 0 1.586.716 1.586 1.6 0 .884-.71 1.6-1.586 1.6a1.593 1.593 0 0 1-1.587-1.6c0-.884.71-1.6 1.587-1.6Z" fill="#BC0500"/></svg><svg viewBox="0 0 24 24" fill="none" id="catalog-grid" xmlns="http://www.w3.org/2000/svg"><path d="M4 5a1 1 0 0 1 1-1h2a1 1 0 0 1 1 1v2a1 1 0 0 1-1 1H5a1 1 0 0 1-1-1V5ZM4 11a1 1 0 0 1 1-1h2a1 1 0 0 1 1 1v2a1 1 0 0 1-1 1H5a1 1 0 0 1-1-1v-2ZM5 16a1 1 0 0 0-1 1v2a1 1 0 0 0 1 1h2a1 1 0 0 0 1-1v-2a1 1 0 0 0-1-1H5ZM10 5a1 1 0 0 1 1-1h2a1 1 0 0 1 1 1v2a1 1 0 0 1-1 1h-2a1 1 0 0 1-1-1V5ZM11 10a1 1 0 0 0-1 1v2a1 1 0 0 0 1 1h2a1 1 0 0 0 1-1v-2a1 1 0 0 0-1-1h-2ZM10 17a1 1 0 0 1 1-1h2a1 1 0 0 1 1 1v2a1 1 0 0 1-1 1h-2a1 1 0 0 1-1-1v-2ZM17 4a1 1 0 0 0-1 1v2a1 1 0 0 0 1 1h2a1 1 0 0 0 1-1V5a1 1 0 0 0-1-1h-2ZM16 11a1 1 0 0 1 1-1h2a1 1 0 0 1 1 1v2a1 1 0 0 1-1 1h-2a1 1 0 0 1-1-1v-2ZM17 16a1 1 0 0 0-1 1v2a1 1 0 0 0 1 1h2a1 1 0 0 0 1-1v-2a1 1 0 0 0-1-1h-2Z" fill="#161619"/></svg><svg viewBox="0 0 24 24" fill="none" id="catalog-list" xmlns="http://www.w3.org/2000/svg"><path d="M5 4a1 1 0 0 0-1 1v2a1 1 0 0 0 1 1h2a1 1 0 0 0 1-1V5a1 1 0 0 0-1-1H5ZM5 10a1 1 0 0 0-1 1v2a1 1 0 0 0 1 1h2a1 1 0 0 0 1-1v-2a1 1 0 0 0-1-1H5ZM4 17a1 1 0 0 1 1-1h2a1 1 0 0 1 1 1v2a1 1 0 0 1-1 1H5a1 1 0 0 1-1-1v-2ZM11 4a1 1 0 0 0-1 1v2a1 1 0 0 0 1 1h8a1 1 0 0 0 1-1V5a1 1 0 0 0-1-1h-8ZM10 11a1 1 0 0 1 1-1h8a1 1 0 0 1 1 1v2a1 1 0 0 1-1 1h-8a1 1 0 0 1-1-1v-2ZM11 16a1 1 0 0 0-1 1v2a1 1 0 0 0 1 1h8a1 1 0 0 0 1-1v-2a1 1 0 0 0-1-1h-8Z" fill="#161619"/></svg><svg fill="none" viewBox="0 0 24 24" id="cdek" xmlns="http://www.w3.org/2000/svg"><path fill="#fff" d="M0 0h24v24H0z"/><path d="M12 22c5.523 0 10-4.477 10-10S17.523 2 12 2 2 6.477 2 12s4.477 10 10 10Z" fill="#BC0500"/><path d="M10.251 17.52c-.273-.055-.546-.055-.82-.11-1.42-.219-2.458-1.257-2.732-2.623-.163-.82-.054-1.64.164-2.46.383-1.584 1.093-2.95 2.24-4.097.984-.984 2.241-1.585 3.607-1.694 1.148-.11 2.295-.055 3.388-.055h1.257c0 .055-.054.164-.054.218-.164.492-.328.984-.547 1.476-.273.71-.71.983-1.53.983-.929-.054-1.858 0-2.787 0-.437 0-.82.164-1.147.492-1.093 1.038-1.694 2.35-1.64 3.88 0 .874.492 1.312 1.366 1.312h1.64c.273 0 .546.054.765.109.546.164.765.546.6 1.147-.163.492-.327.93-.49 1.421h-3.28Z" fill="#fff"/></svg><svg fill="none" viewBox="0 0 21 21" id="check" xmlns="http://www.w3.org/2000/svg"><path d="M14.832 7.126a.5.5 0 0 1 .042.706l-5.334 6a.5.5 0 0 1-.747 0l-2.667-3a.5.5 0 0 1 .748-.664l2.293 2.58 4.96-5.58a.5.5 0 0 1 .705-.042Z" fill="#fff" stroke="#fff" stroke-linecap="round" stroke-linejoin="round"/></svg><svg fill="none" viewBox="0 0 14 14" id="close" xmlns="http://www.w3.org/2000/svg"><path d="M.293.293a1 1 0 0 1 1.414 0L7 5.586 12.293.293a1 1 0 1 1 1.414 1.414L8.414 7l5.293 5.293a1 1 0 0 1-1.414 1.414L7 8.414l-5.293 5.293a1 1 0 0 1-1.414-1.414L5.586 7 .293 1.707a1 1 0 0 1 0-1.414Z" fill="#0D0D0D"/></svg><svg fill="none" viewBox="0 0 24 24" id="crypto" xmlns="http://www.w3.org/2000/svg"><path d="M11.991 11.323h-.865V9.277h.956c.475 0 .83.084 1.063.252.233.169.35.438.35.807 0 .337-.125.586-.375.746-.25.161-.626.241-1.13.241h.001Zm1.315 1.537c-.17-.083-.393-.125-.67-.125h-1.51v2.15h1.407c.422 0 .74-.083.953-.25.213-.166.32-.42.32-.761 0-.256-.041-.468-.122-.636a.795.795 0 0 0-.378-.378ZM22 12c0 5.523-4.477 10-10 10S2 17.523 2 12 6.477 2 12 2s10 4.477 10 10Zm-6.07 1.88c0-.304-.052-.587-.157-.85a1.668 1.668 0 0 0-.494-.67c-.223-.184-.511-.315-.864-.392.414-.17.72-.421.919-.752.199-.33.298-.705.298-1.123 0-.812-.312-1.423-.938-1.833-.394-.26-.887-.436-1.478-.531h.064V6.14h-.977v1.507a8.182 8.182 0 0 0-.22-.003h-.535V6.14h-.976v1.504H8.07v1.254l.92.195v5.974l-.92.195v1.248h2.502v1.349h.976V16.51h.755v1.349h.977v-1.387c.745-.08 1.338-.289 1.78-.625.58-.443.87-1.098.87-1.967Z" fill="#BC0500"/></svg><svg fill="none" viewBox="0 0 24 24" id="delivery" xmlns="http://www.w3.org/2000/svg"><path d="M14 2.92v8.31c0 1.02-.83 1.85-1.85 1.85H3c-.55 0-1-.45-1-1V5.69C2 3.65 3.65 2 5.69 2h7.38c.52 0 .93.41.93.92Z" fill="#BC0500"/><path d="M21.5 15.5c.28 0 .5.22.5.5v1c0 1.66-1.34 3-3 3 0-1.65-1.35-3-3-3s-3 1.35-3 3h-2c0-1.65-1.35-3-3-3s-3 1.35-3 3c-1.66 0-3-1.34-3-3v-2c0-.55.45-1 1-1h9.5a2.5 2.5 0 0 0 2.5-2.5V6c0-.55.45-1 1-1h.84c.72 0 1.38.39 1.74 1.01l.64 1.12c.09.16-.03.37-.22.37a2.5 2.5 0 0 0-2.5 2.5v3a2.5 2.5 0 0 0 2.5 2.5h2.5Z" fill="#BC0500"/><path d="M10 20a2 2 0 1 1-4 0 2 2 0 0 1 4 0ZM16 22a2 2 0 1 0 0-4 2 2 0 0 0 0 4ZM22 14v-1.47c0-.35-.09-.69-.26-.99L20.29 9H19c-.55 0-1 .45-1 1v3c0 .55.45 1 1 1h3Z" fill="#BC0500"/></svg><svg fill="none" viewBox="0 0 20 16" id="email-solid" xmlns="http://www.w3.org/2000/svg"><path fill-rule="evenodd" clip-rule="evenodd" d="M1.172 1.172C0 2.343 0 4.229 0 8c0 3.771 0 5.657 1.172 6.828C2.343 16 4.229 16 8 16h4c3.771 0 5.657 0 6.828-1.172C20 13.657 20 11.771 20 8c0-3.771 0-5.657-1.172-6.828C17.657 0 15.771 0 12 0H8C4.229 0 2.343 0 1.172 1.172ZM16.576 3.52a.75.75 0 0 1-.096 1.056l-2.196 1.83c-.887.74-1.605 1.338-2.24 1.746-.66.425-1.303.693-2.044.693-.741 0-1.384-.268-2.045-.693-.634-.408-1.352-1.007-2.239-1.745L3.52 4.577a.75.75 0 0 1 .96-1.153L6.64 5.223C7.572 6 8.219 6.538 8.767 6.89c.529.34.888.455 1.233.455.345 0 .704-.114 1.233-.455.547-.352 1.195-.89 2.128-1.667l2.159-1.8a.75.75 0 0 1 1.056.097Z" fill="currentColor"/></svg><svg viewBox="0 0 16 2" fill="none" id="icon-minus" xmlns="http://www.w3.org/2000/svg"><path d="M0 1a1 1 0 0 1 1-1h14a1 1 0 1 1 0 2H1a1 1 0 0 1-1-1Z" fill="currentColor"/></svg><svg viewBox="0 0 16 16" fill="none" id="icon-plus" xmlns="http://www.w3.org/2000/svg"><path d="M8 0a1 1 0 0 1 1 1v6h6a1 1 0 1 1 0 2H9v6a1 1 0 1 1-2 0V9H1a1 1 0 1 1 0-2h6V1a1 1 0 0 1 1-1Z" fill="currentColor"/></svg><svg viewBox="0 0 20 20" fill="none" id="icon-truck" xmlns="http://www.w3.org/2000/svg"><path d="M11.667 2.433v6.925c0 .85-.692 1.541-1.542 1.541H2.5a.836.836 0 0 1-.833-.833V4.741c0-1.7 1.375-3.075 3.075-3.075h6.15c.433 0 .775.342.775.767Z" fill="currentColor"/><path d="M17.917 12.916c.233 0 .417.183.417.417v.833c0 1.383-1.117 2.5-2.5 2.5 0-1.375-1.125-2.5-2.5-2.5a2.507 2.507 0 0 0-2.5 2.5H9.167c0-1.375-1.125-2.5-2.5-2.5a2.507 2.507 0 0 0-2.5 2.5 2.497 2.497 0 0 1-2.5-2.5v-1.667c0-.458.375-.833.833-.833h7.917c1.15 0 2.083-.933 2.083-2.083V4.999c0-.458.375-.833.834-.833h.7c.6 0 1.15.325 1.45.842l.533.933a.21.21 0 0 1-.183.308c-1.15 0-2.084.934-2.084 2.084v2.5c0 1.15.934 2.083 2.084 2.083h2.083Z" fill="currentColor"/><path d="M6.667 18.333a1.667 1.667 0 1 0 0-3.333 1.667 1.667 0 0 0 0 3.333ZM13.334 18.333a1.667 1.667 0 1 0 0-3.333 1.667 1.667 0 0 0 0 3.333ZM18.333 10.442v1.225h-2.5a.836.836 0 0 1-.833-.834v-2.5c0-.458.375-.833.833-.833h1.075l1.209 2.117c.141.25.216.533.216.825Z" fill="currentColor"/></svg><svg fill="none" viewBox="0 0 24 24" id="list" xmlns="http://www.w3.org/2000/svg"><path fill-rule="evenodd" clip-rule="evenodd" d="M7.245 2h9.51c1.159 0 1.738 0 2.206.163a3.045 3.045 0 0 1 1.881 1.936C21 4.581 21 5.177 21 6.37v14.004c0 .858-.985 1.314-1.608.744a.946.946 0 0 0-1.284 0l-.483.442a1.657 1.657 0 0 1-2.25 0 1.657 1.657 0 0 0-2.25 0 1.657 1.657 0 0 1-2.25 0 1.657 1.657 0 0 0-2.25 0 1.657 1.657 0 0 1-2.25 0l-.483-.442a.946.946 0 0 0-1.284 0c-.623.57-1.608.114-1.608-.744V6.37c0-1.193 0-1.79.158-2.27.3-.913.995-1.629 1.881-1.937C5.507 2 6.086 2 7.245 2ZM7 6.75a.75.75 0 0 0 0 1.5h.5a.75.75 0 0 0 0-1.5H7Zm3.5 0a.75.75 0 0 0 0 1.5H17a.75.75 0 0 0 0-1.5h-6.5ZM7 10.25a.75.75 0 0 0 0 1.5h.5a.75.75 0 0 0 0-1.5H7Zm3.5 0a.75.75 0 0 0 0 1.5H17a.75.75 0 0 0 0-1.5h-6.5ZM7 13.75a.75.75 0 0 0 0 1.5h.5a.75.75 0 0 0 0-1.5H7Zm3.5 0a.75.75 0 0 0 0 1.5H17a.75.75 0 0 0 0-1.5h-6.5Z" fill="#BC0500"/></svg><svg fill="none" viewBox="0 0 34 34" id="logistics" xmlns="http://www.w3.org/2000/svg"><rect width="34" height="34" rx="17" fill="#fff"/><path fill-rule="evenodd" clip-rule="evenodd" d="M12.333 14.362C12.333 11.953 14.423 10 17 10s4.667 1.953 4.667 4.362c0 2.39-1.49 5.18-3.814 6.177a2.175 2.175 0 0 1-1.706 0c-2.324-.998-3.814-3.787-3.814-6.177Zm6.223.23c0 .845-.697 1.53-1.556 1.53-.86 0-1.556-.685-1.556-1.53 0-.846.697-1.531 1.556-1.531.86 0 1.556.685 1.556 1.53Z" fill="#BC0500"/><path d="M24 17.011v4.337c0 .988 0 1.482-.264 1.799-.09.108-.199.198-.322.268-.361.204-.856.123-1.847-.04-.977-.16-1.466-.24-1.95-.2-.17.014-.339.039-.505.075-.475.102-.922.322-1.816.761-1.166.574-1.75.861-2.37.95-.187.026-.376.04-.565.039-.627-.001-1.24-.202-2.467-.605l-.299-.097c-.77-.253-1.155-.38-1.375-.68-.22-.3-.22-.7-.22-1.498v-3.773c0-1.27 0-1.904.38-2.245.066-.06.14-.112.218-.155.197-.108.426-.13.723-.087.19.934.546 1.857 1.04 2.69.756 1.28 1.88 2.423 3.32 3.041.838.36 1.8.36 2.639 0 1.44-.618 2.563-1.762 3.32-3.04.65-1.1 1.063-2.355 1.167-3.584.51.174.795.303.973.546.22.3.22.7.22 1.498Z" fill="#BC0500"/></svg><svg fill="none" viewBox="0 0 24 24" id="menu" xmlns="http://www.w3.org/2000/svg"><path d="M5.5 4A1.5 1.5 0 0 0 4 5.5v3A1.5 1.5 0 0 0 5.5 10h3A1.5 1.5 0 0 0 10 8.5v-3A1.5 1.5 0 0 0 8.5 4h-3ZM5.5 14A1.5 1.5 0 0 0 4 15.5v3A1.5 1.5 0 0 0 5.5 20h3a1.5 1.5 0 0 0 1.5-1.5v-3A1.5 1.5 0 0 0 8.5 14h-3ZM14 5.5A1.5 1.5 0 0 1 15.5 4h3A1.5 1.5 0 0 1 20 5.5v3a1.5 1.5 0 0 1-1.5 1.5h-3A1.5 1.5 0 0 1 14 8.5v-3ZM15.5 14a1.5 1.5 0 0 0-1.5 1.5v3a1.5 1.5 0 0 0 1.5 1.5h3a1.5 1.5 0 0 0 1.5-1.5v-3a1.5 1.5 0 0 0-1.5-1.5h-3Z" fill="#fff"/></svg><svg fill="none" viewBox="0 0 24 24" id="menu-black" xmlns="http://www.w3.org/2000/svg"><path d="M5.5 4A1.5 1.5 0 0 0 4 5.5v3A1.5 1.5 0 0 0 5.5 10h3A1.5 1.5 0 0 0 10 8.5v-3A1.5 1.5 0 0 0 8.5 4h-3ZM5.5 14A1.5 1.5 0 0 0 4 15.5v3A1.5 1.5 0 0 0 5.5 20h3a1.5 1.5 0 0 0 1.5-1.5v-3A1.5 1.5 0 0 0 8.5 14h-3ZM14 5.5A1.5 1.5 0 0 1 15.5 4h3A1.5 1.5 0 0 1 20 5.5v3a1.5 1.5 0 0 1-1.5 1.5h-3A1.5 1.5 0 0 1 14 8.5v-3ZM15.5 14a1.5 1.5 0 0 0-1.5 1.5v3a1.5 1.5 0 0 0 1.5 1.5h3a1.5 1.5 0 0 0 1.5-1.5v-3a1.5 1.5 0 0 0-1.5-1.5h-3Z" fill="#161619"/></svg><svg viewBox="0 0 24 24" fill="none" id="message" xmlns="http://www.w3.org/2000/svg"><path fill-rule="evenodd" clip-rule="evenodd" d="M21 12a9 9 0 0 1-13.007 8.06 1.47 1.47 0 0 0-1.034-.12l-2.003.537a1.17 1.17 0 0 1-1.433-1.433l.536-2.003a1.47 1.47 0 0 0-.12-1.034A9 9 0 1 1 21 12Zm-12.6.9a.9.9 0 1 1 0-1.8.9.9 0 0 1 0 1.8Zm2.7-.9a.9.9 0 1 0 1.8 0 .9.9 0 0 0-1.8 0Zm4.5.9a.9.9 0 1 1 0-1.8.9.9 0 0 1 0 1.8Z" fill="currentColor"/></svg><svg viewBox="0 0 7 8" fill="none" id="mini-play" xmlns="http://www.w3.org/2000/svg"><path d="M0 1.103c0-.85.9-1.38 1.618-.951l4.848 2.896c.712.426.712 1.478 0 1.904L1.618 7.848C.9 8.277 0 7.747 0 6.897V1.103Z" fill="currentColor"/></svg><svg viewBox="0 0 7 8" fill="none" id="mini-play-white" xmlns="http://www.w3.org/2000/svg"><path d="M0 1.103c0-.85.9-1.38 1.618-.951l4.848 2.896c.712.426.712 1.478 0 1.904L1.618 7.848C.9 8.277 0 7.747 0 6.897V1.103Z" fill="#fff"/></svg><svg fill="none" viewBox="0 0 18 17" id="phone-solid" xmlns="http://www.w3.org/2000/svg"><path d="m12.556 10.906-.455.453s-1.083 1.076-4.038-1.862-1.872-4.014-1.872-4.014l.287-.286c.706-.702.773-1.83.156-2.654L5.374.86C4.61-.16 3.135-.295 2.26.575l-1.57 1.56c-.433.432-.723.99-.688 1.61.09 1.587.808 5 4.812 8.982 4.247 4.222 8.232 4.39 9.861 4.238.516-.048.964-.31 1.325-.67l1.42-1.412c.96-.953.69-2.588-.538-3.255l-1.91-1.039c-.806-.438-1.787-.309-2.417.317Z" fill="currentColor"/></svg><svg fill="none" viewBox="0 0 24 24" id="search" xmlns="http://www.w3.org/2000/svg"><path fill-rule="evenodd" clip-rule="evenodd" d="M11.557 2a9.557 9.557 0 1 0 5.903 17.073l2.593 2.593a1.14 1.14 0 1 0 1.613-1.613l-2.593-2.593A9.557 9.557 0 0 0 11.557 2Zm-7.276 9.557a7.276 7.276 0 1 1 14.552 0 7.276 7.276 0 0 1-14.552 0Z" fill="#161619"/></svg><svg fill="none" viewBox="0 0 10 10" id="status-ok" xmlns="http://www.w3.org/2000/svg"><path d="M6.91 3.573a.652.652 0 0 1 0 .922L4.978 6.427a.652.652 0 0 1-.922 0l-.966-.966a.652.652 0 0 1 .922-.922l.505.505 1.471-1.471a.652.652 0 0 1 .922 0Z" fill="#05AE49"/><path fill-rule="evenodd" clip-rule="evenodd" d="M0 5a5 5 0 1 1 10 0A5 5 0 0 1 0 5Zm5-3.696a3.696 3.696 0 1 0 0 7.392 3.696 3.696 0 0 0 0-7.392Z" fill="#05AE49"/></svg><svg fill="none" viewBox="0 0 34 34" id="transactions" xmlns="http://www.w3.org/2000/svg"><rect width="34" height="34" rx="17" fill="#fff"/><path fill-rule="evenodd" clip-rule="evenodd" d="M25 17a8 8 0 1 1-16 0 8 8 0 0 1 16 0Zm-6.596-.444a.6.6 0 0 0-.808.888l1.052.956H13.8a.6.6 0 1 0 0 1.2h4.848l-1.052.956a.6.6 0 0 0 .808.888l2.2-2a.6.6 0 0 0 0-.888l-2.2-2Zm-1.96-3.96a.6.6 0 0 1-.04.848l-1.052.956H20.2a.6.6 0 1 1 0 1.2h-4.848l1.052.956a.6.6 0 0 1-.808.888l-2.2-2a.6.6 0 0 1 0-.888l2.2-2a.6.6 0 0 1 .848.04Z" fill="#BC0500"/></svg><svg fill="none" viewBox="0 0 18 20" id="trash" xmlns="http://www.w3.org/2000/svg"><path d="M0 4.386c0-.484.345-.877.771-.877h2.665c.529-.016.996-.399 1.176-.965l.03-.1.115-.391c.07-.24.131-.45.217-.637C5.312.677 5.938.164 6.66.033 6.845 0 7.038 0 7.261 0h3.478c.223 0 .417 0 .6.033.723.131 1.35.644 1.687 1.383.086.187.147.396.217.637l.115.391.03.1c.18.566.74.95 1.27.965h2.57c.427 0 .772.393.772.877s-.345.877-.771.877H.77C.345 5.263 0 4.87 0 4.386Z" fill="currentColor"/><path fill-rule="evenodd" clip-rule="evenodd" d="M8.596 20h.808c2.783 0 4.175 0 5.08-.886.904-.886.996-2.339 1.181-5.245l.267-4.188c.1-1.577.15-2.366-.303-2.865-.454-.5-1.22-.5-2.753-.5H5.124c-1.533 0-2.3 0-2.753.5-.454.5-.404 1.288-.303 2.865l.267 4.188c.185 2.906.277 4.36 1.182 5.245C4.422 20 5.813 20 8.596 20Zm-1.35-9.811c-.04-.434-.408-.75-.82-.707-.413.043-.713.43-.672.864l.5 5.263c.04.434.408.75.82.707.413-.043.713-.43.672-.864l-.5-5.263Zm4.329-.707c.412.043.713.43.671.864l-.5 5.263c-.04.434-.409.75-.82.707-.413-.043-.713-.43-.672-.864l.5-5.263c.04-.434.409-.75.82-.707Z" fill="currentColor"/></svg><svg fill="none" viewBox="0 0 24 24" id="user" xmlns="http://www.w3.org/2000/svg"><path d="M12 10a4 4 0 1 0 0-8 4 4 0 0 0 0 8ZM12 22c8 0 8-2.015 8-4.5S16.418 13 12 13s-8 2.015-8 4.5S4 22 12 22Z" fill="#BC0500"/></svg><svg fill="none" viewBox="0 0 24 24" id="wallet" xmlns="http://www.w3.org/2000/svg"><path fill-rule="evenodd" clip-rule="evenodd" d="M20.41 9.86a2.822 2.822 0 0 0-.175-.003H17.8c-1.992 0-3.698 1.581-3.698 3.643s1.706 3.643 3.699 3.643h2.433c.061 0 .12 0 .175-.004a1.698 1.698 0 0 0 1.586-1.581c.004-.059.004-.122.004-.18V11.622c0-.058 0-.121-.004-.18a1.698 1.698 0 0 0-1.585-1.581Zm-2.823 4.611c.513 0 .93-.434.93-.971 0-.537-.417-.971-.93-.971-.513 0-.929.434-.929.971 0 .537.416.971.93.971Z" fill="#BC0500"/><path fill-rule="evenodd" clip-rule="evenodd" d="M20.234 18.6a.214.214 0 0 1 .214.27c-.194.692-.501 1.282-.994 1.778-.721.727-1.636 1.05-2.766 1.203-1.098.149-2.5.149-4.272.149h-2.037c-1.771 0-3.174 0-4.272-.149-1.13-.153-2.045-.476-2.766-1.203C2.62 19.922 2.3 19 2.148 17.861 2 16.754 2 15.34 2 13.555v-.11c0-1.785 0-3.2.148-4.306C2.3 8 2.62 7.08 3.34 6.351c.721-.726 1.636-1.05 2.766-1.202C7.205 5 8.608 5 10.379 5h2.037c1.771 0 3.174 0 4.272.149 1.13.153 2.045.476 2.766 1.202.493.497.8 1.087.994 1.78a.214.214 0 0 1-.214.269h-2.433c-2.734 0-5.143 2.177-5.143 5.1 0 2.923 2.41 5.1 5.144 5.1h2.432ZM5.614 8.886c-.399 0-.722.326-.722.728 0 .403.323.729.722.729H9.47c.4 0 .723-.326.723-.729a.726.726 0 0 0-.723-.728H5.614Z" fill="#BC0500"/><path d="m7.777 4.024 1.958-1.443a2.969 2.969 0 0 1 3.53 0l1.969 1.451C14.41 4 13.49 4 12.483 4h-2.17c-.922 0-1.769 0-2.536.024Z" fill="#BC0500"/></svg></svg>