<?xml version="1.0" encoding="utf-8"?><svg viewBox="0 0 34 34" xmlns="http://www.w3.org/2000/svg" xmlns:xlink="http://www.w3.org/1999/xlink"><style>:root>svg{display:none}:root>svg:target{display:block}</style><svg fill="none" viewBox="0 0 24 24" id="arrow" xmlns="http://www.w3.org/2000/svg"><path d="M4 12h16m0 0-6-6m6 6-6 6" stroke="currentColor" stroke-width="2" stroke-linecap="round" stroke-linejoin="round"/></svg><svg fill="none" viewBox="0 0 14 16" id="arrow-down" xmlns="http://www.w3.org/2000/svg"><path fill-rule="evenodd" clip-rule="evenodd" d="M13.692 8.7a.951.951 0 0 1 0 1.403L7.744 15.71a1.097 1.097 0 0 1-1.488 0L.308 10.103a.951.951 0 0 1 0-1.402 1.097 1.097 0 0 1 1.487 0l4.153 3.915V.99C5.948.444 6.42 0 7 0c.58 0 1.052.444 1.052.991v11.625L12.205 8.7a1.097 1.097 0 0 1 1.487 0Z" fill="currentColor"/></svg><svg viewBox="0 0 10 6" fill="none" id="arrow-down-1" xmlns="http://www.w3.org/2000/svg"><path d="M9.79.22a.69.69 0 0 0-1.01 0L5 4.19 1.22.22a.69.69 0 0 0-1.01 0 .777.777 0 0 0 0 1.06l4.285 4.5a.69.69 0 0 0 1.01 0l4.286-4.5a.777.777 0 0 0 0-1.06Z" fill="currentColor"/></svg><svg fill="none" viewBox="0 0 18 14" id="arrow-left" xmlns="http://www.w3.org/2000/svg"><path d="M16.071 7H1.93m0 0 5.657-5.656M1.929 7l5.657 5.657" stroke="#161619" stroke-width="2" stroke-linecap="round" stroke-linejoin="round"/></svg><svg fill="none" viewBox="0 0 18 14" id="arrow-right" xmlns="http://www.w3.org/2000/svg"><path d="M1.929 7H16.07m0 0-5.657-5.656M16.071 7l-5.657 5.657" stroke="#161619" stroke-width="2" stroke-linecap="round" stroke-linejoin="round"/></svg><svg fill="none" viewBox="0 0 14 16" id="arrow-up" xmlns="http://www.w3.org/2000/svg"><path fill-rule="evenodd" clip-rule="evenodd" d="M13.692 7.3a.951.951 0 0 0 0-1.403L7.744.29a1.097 1.097 0 0 0-1.488 0L.308 5.897a.951.951 0 0 0 0 1.402c.41.387 1.076.387 1.487 0l4.153-3.915V15.01c0 .547.471.991 1.052.991.58 0 1.052-.444 1.052-.991V3.384L12.205 7.3c.41.387 1.076.387 1.487 0Z" fill="currentColor"/></svg><svg fill="none" viewBox="0 0 10 10" id="arrow-up-right" xmlns="http://www.w3.org/2000/svg"><path d="M1.667.833C1.667.373 2.04 0 2.5 0h6.667c.46 0 .833.373.833.833V7.5a.833.833 0 0 1-1.667 0V2.845l-6.91 6.91A.833.833 0 1 1 .244 8.578l6.91-6.91H2.5a.833.833 0 0 1-.833-.834Z" fill="currentColor"/></svg><svg viewBox="0 0 24 24" fill="none" id="basket" xmlns="http://www.w3.org/2000/svg"><path d="M3.044 2.041a.792.792 0 0 0-1.003.506.802.802 0 0 0 .502 1.012l.28.094c.715.24 1.188.401 1.536.565.33.154.473.279.564.407.092.128.164.304.205.668.044.385.045.889.045 1.649v2.85c0 1.459 0 2.635.123 3.56.128.96.402 1.768 1.038 2.41.637.642 1.439.918 2.39 1.047.917.124 2.083.124 3.53.124h7.46a.797.797 0 0 0 .794-.8c0-.441-.355-.8-.794-.8h-7.402c-1.519 0-2.577-.001-3.376-.11-.776-.105-1.187-.297-1.48-.593-.249-.25-.424-.587-.535-1.163h10.702c1.014 0 1.522 0 1.919-.265.397-.264.597-.734.997-1.675l.453-1.066c.856-2.015 1.284-3.022.814-3.742C21.336 6 20.249 6 18.076 6H6.754a9.68 9.68 0 0 0-.05-.888c-.058-.517-.186-.992-.494-1.423-.308-.43-.714-.703-1.181-.922-.44-.207-1-.395-1.663-.618l-.322-.108ZM8.61 18.8c.876 0 1.586.716 1.586 1.6 0 .884-.71 1.6-1.586 1.6a1.593 1.593 0 0 1-1.587-1.6c0-.884.71-1.6 1.587-1.6ZM18.128 18.8c.876 0 1.586.716 1.586 1.6 0 .884-.71 1.6-1.586 1.6a1.593 1.593 0 0 1-1.587-1.6c0-.884.71-1.6 1.587-1.6Z" fill="currentColor"/></svg><svg fill="none" viewBox="0 0 34 34" id="bayer" xmlns="http://www.w3.org/2000/svg"><rect width="34" height="34" rx="17" fill="#fff"/><path d="M17.803 9H16.2c-1.513 0-2.27 0-2.74.644-.332.455-.43 1.106-.458 2.18.659-.076 1.437-.076 2.316-.076h3.368c.879 0 1.657 0 2.316.075-.029-1.073-.126-1.724-.458-2.18C20.073 9 19.316 9 17.803 9Z" fill="#BC0500"/><path fill-rule="evenodd" clip-rule="evenodd" d="M18.75 12.765h-3.5c-2.475 0-3.712 0-4.481.692C10 14.149 10 15.264 10 17.492v.832c0 1.896 0 2.844.523 3.605.522.762 1.464 1.186 3.347 2.034C15.405 24.653 16.174 25 17 25c.826 0 1.594-.346 3.13-1.038 1.883-.847 2.825-1.271 3.347-2.033.523-.761.523-1.71.523-3.605v-.832c0-2.228 0-3.343-.769-4.035-.769-.692-2.006-.692-4.481-.692Zm-2.497 3.957c.332-.537.498-.806.747-.806s.415.269.747.806l.086.14c.095.152.142.228.216.278.073.05.165.07.349.107l.167.034c.645.132.968.197 1.045.42.077.222-.143.454-.584.917l-.113.12c-.125.132-.188.198-.216.28-.028.08-.019.169 0 .344l.017.16c.067.619.1.928-.101 1.066-.201.137-.503.012-1.108-.239l-.156-.065c-.172-.071-.258-.107-.349-.107-.091 0-.177.036-.349.107l-.156.065c-.605.25-.907.376-1.108.239-.201-.138-.168-.447-.101-1.066l.017-.16c.019-.175.028-.263 0-.345-.028-.081-.09-.147-.216-.279l-.114-.12c-.44-.463-.66-.695-.583-.917.077-.223.4-.288 1.045-.42l.167-.034c.184-.038.276-.056.35-.107.073-.05.12-.126.215-.279l.086-.139Z" fill="#BC0500"/></svg><svg fill="none" viewBox="0 0 18 14" id="burger" xmlns="http://www.w3.org/2000/svg"><path d="M0 1.167C0 .522.504 0 1.125 0h15.75C17.496 0 18 .522 18 1.167c0 .644-.504 1.166-1.125 1.166H1.125C.504 2.333 0 1.811 0 1.167ZM0 7c0-.644.504-1.167 1.125-1.167h15.75C17.496 5.833 18 6.356 18 7s-.504 1.167-1.125 1.167H1.125C.504 8.167 0 7.644 0 7Zm0 5.833c0-.644.504-1.166 1.125-1.166h15.75c.621 0 1.125.522 1.125 1.166 0 .645-.504 1.167-1.125 1.167H1.125C.504 14 0 13.478 0 12.833Z" fill="#0D0D0D"/></svg><svg fill="none" viewBox="0 0 24 24" id="cart" xmlns="http://www.w3.org/2000/svg"><path d="M3.044 2.041a.792.792 0 0 0-1.003.506.802.802 0 0 0 .502 1.012l.28.094c.715.24 1.188.401 1.536.565.33.154.473.279.564.407.092.128.164.304.205.668.044.385.045.889.045 1.649v2.85c0 1.459 0 2.635.123 3.56.128.96.402 1.768 1.038 2.41.637.642 1.439.918 2.39 1.047.917.124 2.083.124 3.53.124h7.46a.797.797 0 0 0 .794-.8c0-.441-.355-.8-.794-.8h-7.402c-1.519 0-2.577-.001-3.376-.11-.776-.105-1.187-.297-1.48-.593-.249-.25-.424-.587-.535-1.163h10.702c1.014 0 1.522 0 1.919-.265.397-.264.597-.734.997-1.675l.453-1.066c.856-2.015 1.284-3.022.814-3.742C21.336 6 20.249 6 18.076 6H6.754a9.68 9.68 0 0 0-.05-.888c-.058-.517-.186-.992-.494-1.423-.308-.43-.714-.703-1.181-.922-.44-.207-1-.395-1.663-.618l-.322-.108ZM8.61 18.8c.876 0 1.586.716 1.586 1.6 0 .884-.71 1.6-1.586 1.6a1.593 1.593 0 0 1-1.587-1.6c0-.884.71-1.6 1.587-1.6ZM18.128 18.8c.876 0 1.586.716 1.586 1.6 0 .884-.71 1.6-1.586 1.6a1.593 1.593 0 0 1-1.587-1.6c0-.884.71-1.6 1.587-1.6Z" fill="#BC0500"/></svg><svg viewBox="0 0 24 24" fill="none" id="catalog-grid" xmlns="http://www.w3.org/2000/svg"><path d="M4 5a1 1 0 0 1 1-1h2a1 1 0 0 1 1 1v2a1 1 0 0 1-1 1H5a1 1 0 0 1-1-1V5ZM4 11a1 1 0 0 1 1-1h2a1 1 0 0 1 1 1v2a1 1 0 0 1-1 1H5a1 1 0 0 1-1-1v-2ZM5 16a1 1 0 0 0-1 1v2a1 1 0 0 0 1 1h2a1 1 0 0 0 1-1v-2a1 1 0 0 0-1-1H5ZM10 5a1 1 0 0 1 1-1h2a1 1 0 0 1 1 1v2a1 1 0 0 1-1 1h-2a1 1 0 0 1-1-1V5ZM11 10a1 1 0 0 0-1 1v2a1 1 0 0 0 1 1h2a1 1 0 0 0 1-1v-2a1 1 0 0 0-1-1h-2ZM10 17a1 1 0 0 1 1-1h2a1 1 0 0 1 1 1v2a1 1 0 0 1-1 1h-2a1 1 0 0 1-1-1v-2ZM17 4a1 1 0 0 0-1 1v2a1 1 0 0 0 1 1h2a1 1 0 0 0 1-1V5a1 1 0 0 0-1-1h-2ZM16 11a1 1 0 0 1 1-1h2a1 1 0 0 1 1 1v2a1 1 0 0 1-1 1h-2a1 1 0 0 1-1-1v-2ZM17 16a1 1 0 0 0-1 1v2a1 1 0 0 0 1 1h2a1 1 0 0 0 1-1v-2a1 1 0 0 0-1-1h-2Z" fill="#161619"/></svg><svg viewBox="0 0 24 24" fill="none" id="catalog-list" xmlns="http://www.w3.org/2000/svg"><path d="M5 4a1 1 0 0 0-1 1v2a1 1 0 0 0 1 1h2a1 1 0 0 0 1-1V5a1 1 0 0 0-1-1H5ZM5 10a1 1 0 0 0-1 1v2a1 1 0 0 0 1 1h2a1 1 0 0 0 1-1v-2a1 1 0 0 0-1-1H5ZM4 17a1 1 0 0 1 1-1h2a1 1 0 0 1 1 1v2a1 1 0 0 1-1 1H5a1 1 0 0 1-1-1v-2ZM11 4a1 1 0 0 0-1 1v2a1 1 0 0 0 1 1h8a1 1 0 0 0 1-1V5a1 1 0 0 0-1-1h-8ZM10 11a1 1 0 0 1 1-1h8a1 1 0 0 1 1 1v2a1 1 0 0 1-1 1h-8a1 1 0 0 1-1-1v-2ZM11 16a1 1 0 0 0-1 1v2a1 1 0 0 0 1 1h8a1 1 0 0 0 1-1v-2a1 1 0 0 0-1-1h-8Z" fill="#161619"/></svg><svg fill="none" viewBox="0 0 21 21" id="check" xmlns="http://www.w3.org/2000/svg"><path d="M14.832 7.126a.5.5 0 0 1 .042.706l-5.334 6a.5.5 0 0 1-.747 0l-2.667-3a.5.5 0 0 1 .748-.664l2.293 2.58 4.96-5.58a.5.5 0 0 1 .705-.042Z" fill="#fff" stroke="#fff" stroke-linecap="round" stroke-linejoin="round"/></svg><svg fill="none" viewBox="0 0 14 14" id="close" xmlns="http://www.w3.org/2000/svg"><path d="M.293.293a1 1 0 0 1 1.414 0L7 5.586 12.293.293a1 1 0 1 1 1.414 1.414L8.414 7l5.293 5.293a1 1 0 0 1-1.414 1.414L7 8.414l-5.293 5.293a1 1 0 0 1-1.414-1.414L5.586 7 .293 1.707a1 1 0 0 1 0-1.414Z" fill="#0D0D0D"/></svg><svg fill="none" viewBox="0 0 20 16" id="email-solid" xmlns="http://www.w3.org/2000/svg"><path fill-rule="evenodd" clip-rule="evenodd" d="M1.172 1.172C0 2.343 0 4.229 0 8c0 3.771 0 5.657 1.172 6.828C2.343 16 4.229 16 8 16h4c3.771 0 5.657 0 6.828-1.172C20 13.657 20 11.771 20 8c0-3.771 0-5.657-1.172-6.828C17.657 0 15.771 0 12 0H8C4.229 0 2.343 0 1.172 1.172ZM16.576 3.52a.75.75 0 0 1-.096 1.056l-2.196 1.83c-.887.74-1.605 1.338-2.24 1.746-.66.425-1.303.693-2.044.693-.741 0-1.384-.268-2.045-.693-.634-.408-1.352-1.007-2.239-1.745L3.52 4.577a.75.75 0 0 1 .96-1.153L6.64 5.223C7.572 6 8.219 6.538 8.767 6.89c.529.34.888.455 1.233.455.345 0 .704-.114 1.233-.455.547-.352 1.195-.89 2.128-1.667l2.159-1.8a.75.75 0 0 1 1.056.097Z" fill="currentColor"/></svg><svg viewBox="0 0 16 2" fill="none" id="icon-minus" xmlns="http://www.w3.org/2000/svg"><path d="M0 1a1 1 0 0 1 1-1h14a1 1 0 1 1 0 2H1a1 1 0 0 1-1-1Z" fill="currentColor"/></svg><svg viewBox="0 0 16 16" fill="none" id="icon-plus" xmlns="http://www.w3.org/2000/svg"><path d="M8 0a1 1 0 0 1 1 1v6h6a1 1 0 1 1 0 2H9v6a1 1 0 1 1-2 0V9H1a1 1 0 1 1 0-2h6V1a1 1 0 0 1 1-1Z" fill="currentColor"/></svg><svg viewBox="0 0 20 20" fill="none" id="icon-truck" xmlns="http://www.w3.org/2000/svg"><path d="M11.667 2.433v6.925c0 .85-.692 1.541-1.542 1.541H2.5a.836.836 0 0 1-.833-.833V4.741c0-1.7 1.375-3.075 3.075-3.075h6.15c.433 0 .775.342.775.767Z" fill="currentColor"/><path d="M17.917 12.916c.233 0 .417.183.417.417v.833c0 1.383-1.117 2.5-2.5 2.5 0-1.375-1.125-2.5-2.5-2.5a2.507 2.507 0 0 0-2.5 2.5H9.167c0-1.375-1.125-2.5-2.5-2.5a2.507 2.507 0 0 0-2.5 2.5 2.497 2.497 0 0 1-2.5-2.5v-1.667c0-.458.375-.833.833-.833h7.917c1.15 0 2.083-.933 2.083-2.083V4.999c0-.458.375-.833.834-.833h.7c.6 0 1.15.325 1.45.842l.533.933a.21.21 0 0 1-.183.308c-1.15 0-2.084.934-2.084 2.084v2.5c0 1.15.934 2.083 2.084 2.083h2.083Z" fill="currentColor"/><path d="M6.667 18.333a1.667 1.667 0 1 0 0-3.333 1.667 1.667 0 0 0 0 3.333ZM13.334 18.333a1.667 1.667 0 1 0 0-3.333 1.667 1.667 0 0 0 0 3.333ZM18.333 10.442v1.225h-2.5a.836.836 0 0 1-.833-.834v-2.5c0-.458.375-.833.833-.833h1.075l1.209 2.117c.141.25.216.533.216.825Z" fill="currentColor"/></svg><svg fill="none" viewBox="0 0 34 34" id="logistics" xmlns="http://www.w3.org/2000/svg"><rect width="34" height="34" rx="17" fill="#fff"/><path fill-rule="evenodd" clip-rule="evenodd" d="M12.333 14.362C12.333 11.953 14.423 10 17 10s4.667 1.953 4.667 4.362c0 2.39-1.49 5.18-3.814 6.177a2.175 2.175 0 0 1-1.706 0c-2.324-.998-3.814-3.787-3.814-6.177Zm6.223.23c0 .845-.697 1.53-1.556 1.53-.86 0-1.556-.685-1.556-1.53 0-.846.697-1.531 1.556-1.531.86 0 1.556.685 1.556 1.53Z" fill="#BC0500"/><path d="M24 17.011v4.337c0 .988 0 1.482-.264 1.799-.09.108-.199.198-.322.268-.361.204-.856.123-1.847-.04-.977-.16-1.466-.24-1.95-.2-.17.014-.339.039-.505.075-.475.102-.922.322-1.816.761-1.166.574-1.75.861-2.37.95-.187.026-.376.04-.565.039-.627-.001-1.24-.202-2.467-.605l-.299-.097c-.77-.253-1.155-.38-1.375-.68-.22-.3-.22-.7-.22-1.498v-3.773c0-1.27 0-1.904.38-2.245.066-.06.14-.112.218-.155.197-.108.426-.13.723-.087.19.934.546 1.857 1.04 2.69.756 1.28 1.88 2.423 3.32 3.041.838.36 1.8.36 2.639 0 1.44-.618 2.563-1.762 3.32-3.04.65-1.1 1.063-2.355 1.167-3.584.51.174.795.303.973.546.22.3.22.7.22 1.498Z" fill="#BC0500"/></svg><svg fill="none" viewBox="0 0 24 24" id="menu" xmlns="http://www.w3.org/2000/svg"><path d="M5.5 4A1.5 1.5 0 0 0 4 5.5v3A1.5 1.5 0 0 0 5.5 10h3A1.5 1.5 0 0 0 10 8.5v-3A1.5 1.5 0 0 0 8.5 4h-3ZM5.5 14A1.5 1.5 0 0 0 4 15.5v3A1.5 1.5 0 0 0 5.5 20h3a1.5 1.5 0 0 0 1.5-1.5v-3A1.5 1.5 0 0 0 8.5 14h-3ZM14 5.5A1.5 1.5 0 0 1 15.5 4h3A1.5 1.5 0 0 1 20 5.5v3a1.5 1.5 0 0 1-1.5 1.5h-3A1.5 1.5 0 0 1 14 8.5v-3ZM15.5 14a1.5 1.5 0 0 0-1.5 1.5v3a1.5 1.5 0 0 0 1.5 1.5h3a1.5 1.5 0 0 0 1.5-1.5v-3a1.5 1.5 0 0 0-1.5-1.5h-3Z" fill="#fff"/></svg><svg fill="none" viewBox="0 0 24 24" id="menu-black" xmlns="http://www.w3.org/2000/svg"><path d="M5.5 4A1.5 1.5 0 0 0 4 5.5v3A1.5 1.5 0 0 0 5.5 10h3A1.5 1.5 0 0 0 10 8.5v-3A1.5 1.5 0 0 0 8.5 4h-3ZM5.5 14A1.5 1.5 0 0 0 4 15.5v3A1.5 1.5 0 0 0 5.5 20h3a1.5 1.5 0 0 0 1.5-1.5v-3A1.5 1.5 0 0 0 8.5 14h-3ZM14 5.5A1.5 1.5 0 0 1 15.5 4h3A1.5 1.5 0 0 1 20 5.5v3a1.5 1.5 0 0 1-1.5 1.5h-3A1.5 1.5 0 0 1 14 8.5v-3ZM15.5 14a1.5 1.5 0 0 0-1.5 1.5v3a1.5 1.5 0 0 0 1.5 1.5h3a1.5 1.5 0 0 0 1.5-1.5v-3a1.5 1.5 0 0 0-1.5-1.5h-3Z" fill="#161619"/></svg><svg viewBox="0 0 24 24" fill="none" id="message" xmlns="http://www.w3.org/2000/svg"><path fill-rule="evenodd" clip-rule="evenodd" d="M21 12a9 9 0 0 1-13.007 8.06 1.47 1.47 0 0 0-1.034-.12l-2.003.537a1.17 1.17 0 0 1-1.433-1.433l.536-2.003a1.47 1.47 0 0 0-.12-1.034A9 9 0 1 1 21 12Zm-12.6.9a.9.9 0 1 1 0-1.8.9.9 0 0 1 0 1.8Zm2.7-.9a.9.9 0 1 0 1.8 0 .9.9 0 0 0-1.8 0Zm4.5.9a.9.9 0 1 1 0-1.8.9.9 0 0 1 0 1.8Z" fill="currentColor"/></svg><svg viewBox="0 0 7 8" fill="none" id="mini-play" xmlns="http://www.w3.org/2000/svg"><path d="M0 1.103c0-.85.9-1.38 1.618-.951l4.848 2.896c.712.426.712 1.478 0 1.904L1.618 7.848C.9 8.277 0 7.747 0 6.897V1.103Z" fill="currentColor"/></svg><svg viewBox="0 0 7 8" fill="none" id="mini-play-white" xmlns="http://www.w3.org/2000/svg"><path d="M0 1.103c0-.85.9-1.38 1.618-.951l4.848 2.896c.712.426.712 1.478 0 1.904L1.618 7.848C.9 8.277 0 7.747 0 6.897V1.103Z" fill="#fff"/></svg><svg fill="none" viewBox="0 0 18 17" id="phone-solid" xmlns="http://www.w3.org/2000/svg"><path d="m12.556 10.906-.455.453s-1.083 1.076-4.038-1.862-1.872-4.014-1.872-4.014l.287-.286c.706-.702.773-1.83.156-2.654L5.374.86C4.61-.16 3.135-.295 2.26.575l-1.57 1.56c-.433.432-.723.99-.688 1.61.09 1.587.808 5 4.812 8.982 4.247 4.222 8.232 4.39 9.861 4.238.516-.048.964-.31 1.325-.67l1.42-1.412c.96-.953.69-2.588-.538-3.255l-1.91-1.039c-.806-.438-1.787-.309-2.417.317Z" fill="currentColor"/></svg><svg fill="none" viewBox="0 0 24 24" id="search" xmlns="http://www.w3.org/2000/svg"><path fill-rule="evenodd" clip-rule="evenodd" d="M11.557 2a9.557 9.557 0 1 0 5.903 17.073l2.593 2.593a1.14 1.14 0 1 0 1.613-1.613l-2.593-2.593A9.557 9.557 0 0 0 11.557 2Zm-7.276 9.557a7.276 7.276 0 1 1 14.552 0 7.276 7.276 0 0 1-14.552 0Z" fill="#161619"/></svg><svg fill="none" viewBox="0 0 10 10" id="status-ok" xmlns="http://www.w3.org/2000/svg"><path d="M6.91 3.573a.652.652 0 0 1 0 .922L4.978 6.427a.652.652 0 0 1-.922 0l-.966-.966a.652.652 0 0 1 .922-.922l.505.505 1.471-1.471a.652.652 0 0 1 .922 0Z" fill="#05AE49"/><path fill-rule="evenodd" clip-rule="evenodd" d="M0 5a5 5 0 1 1 10 0A5 5 0 0 1 0 5Zm5-3.696a3.696 3.696 0 1 0 0 7.392 3.696 3.696 0 0 0 0-7.392Z" fill="#05AE49"/></svg><svg fill="none" viewBox="0 0 34 34" id="transactions" xmlns="http://www.w3.org/2000/svg"><rect width="34" height="34" rx="17" fill="#fff"/><path fill-rule="evenodd" clip-rule="evenodd" d="M25 17a8 8 0 1 1-16 0 8 8 0 0 1 16 0Zm-6.596-.444a.6.6 0 0 0-.808.888l1.052.956H13.8a.6.6 0 1 0 0 1.2h4.848l-1.052.956a.6.6 0 0 0 .808.888l2.2-2a.6.6 0 0 0 0-.888l-2.2-2Zm-1.96-3.96a.6.6 0 0 1-.04.848l-1.052.956H20.2a.6.6 0 1 1 0 1.2h-4.848l1.052.956a.6.6 0 0 1-.808.888l-2.2-2a.6.6 0 0 1 0-.888l2.2-2a.6.6 0 0 1 .848.04Z" fill="#BC0500"/></svg><svg fill="none" viewBox="0 0 24 24" id="user" xmlns="http://www.w3.org/2000/svg"><path d="M12 10a4 4 0 1 0 0-8 4 4 0 0 0 0 8ZM12 22c8 0 8-2.015 8-4.5S16.418 13 12 13s-8 2.015-8 4.5S4 22 12 22Z" fill="#BC0500"/></svg></svg>