<?xml version="1.0" encoding="utf-8"?><svg width="34" height="34" fill="none" xmlns="http://www.w3.org/2000/svg" viewBox="0 0 34 34"><rect width="34" height="34" rx="17" fill="#fff"/><path d="M17.803 9H16.2c-1.513 0-2.27 0-2.74.644-.332.455-.43 1.106-.458 2.18.659-.076 1.437-.076 2.316-.076h3.368c.879 0 1.657 0 2.316.075-.029-1.073-.126-1.724-.458-2.18C20.073 9 19.316 9 17.803 9Z" fill="#BC0500"/><path fill-rule="evenodd" clip-rule="evenodd" d="M18.75 12.765h-3.5c-2.475 0-3.712 0-4.481.692C10 14.149 10 15.264 10 17.492v.832c0 1.896 0 2.844.523 3.605.522.762 1.464 1.186 3.347 2.034C15.405 24.653 16.174 25 17 25c.826 0 1.594-.346 3.13-1.038 1.883-.847 2.825-1.271 3.347-2.033.523-.761.523-1.71.523-3.605v-.832c0-2.228 0-3.343-.769-4.035-.769-.692-2.006-.692-4.481-.692Zm-2.497 3.957c.332-.537.498-.806.747-.806s.415.269.747.806l.086.14c.095.152.142.228.216.278.073.05.165.07.349.107l.167.034c.645.132.968.197 1.045.42.077.222-.143.454-.584.917l-.113.12c-.125.132-.188.198-.216.28-.028.08-.019.169 0 .344l.017.16c.067.619.1.928-.101 1.066-.201.137-.503.012-1.108-.239l-.156-.065c-.172-.071-.258-.107-.349-.107-.091 0-.177.036-.349.107l-.156.065c-.605.25-.907.376-1.108.239-.201-.138-.168-.447-.101-1.066l.017-.16c.019-.175.028-.263 0-.345-.028-.081-.09-.147-.216-.279l-.114-.12c-.44-.463-.66-.695-.583-.917.077-.223.4-.288 1.045-.42l.167-.034c.184-.038.276-.056.35-.107.073-.05.12-.126.215-.279l.086-.139Z" fill="#BC0500"/></svg>