<?xml version="1.0" encoding="utf-8"?><svg width="18" height="14" fill="none" xmlns="http://www.w3.org/2000/svg" viewBox="0 0 18 14"><path d="M0 1.167C0 .522.504 0 1.125 0h15.75C17.496 0 18 .522 18 1.167c0 .644-.504 1.166-1.125 1.166H1.125C.504 2.333 0 1.811 0 1.167ZM0 7c0-.644.504-1.167 1.125-1.167h15.75C17.496 5.833 18 6.356 18 7s-.504 1.167-1.125 1.167H1.125C.504 8.167 0 7.644 0 7Zm0 5.833c0-.644.504-1.166 1.125-1.166h15.75c.621 0 1.125.522 1.125 1.166 0 .645-.504 1.167-1.125 1.167H1.125C.504 14 0 13.478 0 12.833Z" fill="#0D0D0D"/></svg>