<?xml version="1.0" encoding="utf-8"?><svg width="24" height="24" fill="none" xmlns="http://www.w3.org/2000/svg" viewBox="0 0 24 24"><path fill="#fff" d="M0 0h24v24H0z"/><path d="M12 22c5.523 0 10-4.477 10-10S17.523 2 12 2 2 6.477 2 12s4.477 10 10 10Z" fill="#BC0500"/><path d="M10.251 17.52c-.273-.055-.546-.055-.82-.11-1.42-.219-2.458-1.257-2.732-2.623-.163-.82-.054-1.64.164-2.46.383-1.584 1.093-2.95 2.24-4.097.984-.984 2.241-1.585 3.607-1.694 1.148-.11 2.295-.055 3.388-.055h1.257c0 .055-.054.164-.054.218-.164.492-.328.984-.547 1.476-.273.71-.71.983-1.53.983-.929-.054-1.858 0-2.787 0-.437 0-.82.164-1.147.492-1.093 1.038-1.694 2.35-1.64 3.88 0 .874.492 1.312 1.366 1.312h1.64c.273 0 .546.054.765.109.546.164.765.546.6 1.147-.163.492-.327.93-.49 1.421h-3.28Z" fill="#fff"/></svg>