<?xml version="1.0" encoding="utf-8"?><svg viewBox="0 0 20 20" fill="none" xmlns="http://www.w3.org/2000/svg" width="20" height="20"><path d="M11.667 2.433v6.925c0 .85-.692 1.541-1.542 1.541H2.5a.836.836 0 0 1-.833-.833V4.741c0-1.7 1.375-3.075 3.075-3.075h6.15c.433 0 .775.342.775.767Z" fill="currentColor"/><path d="M17.917 12.916c.233 0 .417.183.417.417v.833c0 1.383-1.117 2.5-2.5 2.5 0-1.375-1.125-2.5-2.5-2.5a2.507 2.507 0 0 0-2.5 2.5H9.167c0-1.375-1.125-2.5-2.5-2.5a2.507 2.507 0 0 0-2.5 2.5 2.497 2.497 0 0 1-2.5-2.5v-1.667c0-.458.375-.833.833-.833h7.917c1.15 0 2.083-.933 2.083-2.083V4.999c0-.458.375-.833.834-.833h.7c.6 0 1.15.325 1.45.842l.533.933a.21.21 0 0 1-.183.308c-1.15 0-2.084.934-2.084 2.084v2.5c0 1.15.934 2.083 2.084 2.083h2.083Z" fill="currentColor"/><path d="M6.667 18.333a1.667 1.667 0 1 0 0-3.333 1.667 1.667 0 0 0 0 3.333ZM13.334 18.333a1.667 1.667 0 1 0 0-3.333 1.667 1.667 0 0 0 0 3.333ZM18.333 10.442v1.225h-2.5a.836.836 0 0 1-.833-.834v-2.5c0-.458.375-.833.833-.833h1.075l1.209 2.117c.141.25.216.533.216.825Z" fill="currentColor"/></svg>