<?xml version="1.0" encoding="utf-8"?><svg width="24" height="24" fill="none" xmlns="http://www.w3.org/2000/svg" viewBox="0 0 24 24"><path d="M5.5 4A1.5 1.5 0 0 0 4 5.5v3A1.5 1.5 0 0 0 5.5 10h3A1.5 1.5 0 0 0 10 8.5v-3A1.5 1.5 0 0 0 8.5 4h-3ZM5.5 14A1.5 1.5 0 0 0 4 15.5v3A1.5 1.5 0 0 0 5.5 20h3a1.5 1.5 0 0 0 1.5-1.5v-3A1.5 1.5 0 0 0 8.5 14h-3ZM14 5.5A1.5 1.5 0 0 1 15.5 4h3A1.5 1.5 0 0 1 20 5.5v3a1.5 1.5 0 0 1-1.5 1.5h-3A1.5 1.5 0 0 1 14 8.5v-3ZM15.5 14a1.5 1.5 0 0 0-1.5 1.5v3a1.5 1.5 0 0 0 1.5 1.5h3a1.5 1.5 0 0 0 1.5-1.5v-3a1.5 1.5 0 0 0-1.5-1.5h-3Z" fill="#161619"/></svg>