<?xml version="1.0" encoding="utf-8"?><svg width="34" height="34" fill="none" xmlns="http://www.w3.org/2000/svg" viewBox="0 0 34 34"><rect width="34" height="34" rx="17" fill="#fff"/><path fill-rule="evenodd" clip-rule="evenodd" d="M25 17a8 8 0 1 1-16 0 8 8 0 0 1 16 0Zm-6.596-.444a.6.6 0 0 0-.808.888l1.052.956H13.8a.6.6 0 1 0 0 1.2h4.848l-1.052.956a.6.6 0 0 0 .808.888l2.2-2a.6.6 0 0 0 0-.888l-2.2-2Zm-1.96-3.96a.6.6 0 0 1-.04.848l-1.052.956H20.2a.6.6 0 1 1 0 1.2h-4.848l1.052.956a.6.6 0 0 1-.808.888l-2.2-2a.6.6 0 0 1 0-.888l2.2-2a.6.6 0 0 1 .848.04Z" fill="#BC0500"/></svg>