<?xml version="1.0" encoding="utf-8"?><svg width="18" height="20" fill="none" xmlns="http://www.w3.org/2000/svg" viewBox="0 0 18 20"><path d="M0 4.386c0-.484.345-.877.771-.877h2.665c.529-.016.996-.399 1.176-.965l.03-.1.115-.391c.07-.24.131-.45.217-.637C5.312.677 5.938.164 6.66.033 6.845 0 7.038 0 7.261 0h3.478c.223 0 .417 0 .6.033.723.131 1.35.644 1.687 1.383.086.187.147.396.217.637l.115.391.03.1c.18.566.74.95 1.27.965h2.57c.427 0 .772.393.772.877s-.345.877-.771.877H.77C.345 5.263 0 4.87 0 4.386Z" fill="currentColor"/><path fill-rule="evenodd" clip-rule="evenodd" d="M8.596 20h.808c2.783 0 4.175 0 5.08-.886.904-.886.996-2.339 1.181-5.245l.267-4.188c.1-1.577.15-2.366-.303-2.865-.454-.5-1.22-.5-2.753-.5H5.124c-1.533 0-2.3 0-2.753.5-.454.5-.404 1.288-.303 2.865l.267 4.188c.185 2.906.277 4.36 1.182 5.245C4.422 20 5.813 20 8.596 20Zm-1.35-9.811c-.04-.434-.408-.75-.82-.707-.413.043-.713.43-.672.864l.5 5.263c.04.434.408.75.82.707.413-.043.713-.43.672-.864l-.5-5.263Zm4.329-.707c.412.043.713.43.671.864l-.5 5.263c-.04.434-.409.75-.82.707-.413-.043-.713-.43-.672-.864l.5-5.263c.04-.434.409-.75.82-.707Z" fill="currentColor"/></svg>