<svg viewBox="0 0 24 24" fill="none" xmlns="http://www.w3.org/2000/svg"><path d="M3.044 2.041a.792.792 0 00-1.003.506.802.802 0 00.502 1.012l.28.094c.715.24 1.188.401 1.536.565.33.154.473.279.564.407.092.128.164.304.205.668.044.385.045.889.045 1.649v2.85c0 1.459 0 2.635.123 3.56.128.96.402 1.768 1.038 2.41.637.642 1.439.918 2.39 1.047.917.124 2.083.124 3.53.124h7.46a.797.797 0 00.794-.8c0-.441-.355-.8-.794-.8h-7.402c-1.519 0-2.577-.001-3.376-.11-.776-.105-1.187-.297-1.48-.593-.249-.25-.424-.587-.535-1.163h10.702c1.014 0 1.522 0 1.919-.265.397-.264.597-.734.997-1.675l.453-1.066c.856-2.015 1.284-3.022.814-3.742C21.336 6 20.249 6 18.076 6H6.754a9.68 9.68 0 00-.05-.888c-.058-.517-.186-.992-.494-1.423-.308-.43-.714-.703-1.181-.922-.44-.207-1-.395-1.663-.618l-.322-.108zM8.61 18.8c.876 0 1.586.716 1.586 1.6 0 .884-.71 1.6-1.586 1.6a1.593 1.593 0 01-1.587-1.6c0-.884.71-1.6 1.587-1.6zm9.518 0c.876 0 1.586.716 1.586 1.6 0 .884-.71 1.6-1.586 1.6a1.593 1.593 0 01-1.587-1.6c0-.884.71-1.6 1.587-1.6z" fill="currentColor"/></svg>