<svg width="24" height="24" viewBox="0 0 24 24" fill="none" xmlns="http://www.w3.org/2000/svg"><path d="M17.578 4.443l-2-1.054C13.822 2.463 12.944 2 12 2s-1.822.463-3.578 1.389l-2 1.054C4.65 5.38 3.606 5.928 2.96 6.663L12 11.207l9.04-4.542c-.646-.736-1.688-1.285-3.462-2.22zm4.17 3.55l-8.998 4.521V22c.718-.18 1.535-.61 2.828-1.292l2-1.055c2.151-1.134 3.227-1.702 3.825-2.721.597-1.02.597-2.288.597-4.825v-.117c0-1.902 0-3.091-.252-3.997zM11.25 22v-9.486l-8.998-4.52C2 8.898 2 10.087 2 11.988v.118c0 2.537 0 3.806.597 4.825.598 1.02 1.674 1.587 3.825 2.721l2 1.055c1.293.682 2.11 1.112 2.828 1.292z" fill="#BC0500"/></svg>