<svg viewBox="0 0 24 24" fill="none" xmlns="http://www.w3.org/2000/svg"><path d="M4 5a1 1 0 011-1h2a1 1 0 011 1v2a1 1 0 01-1 1H5a1 1 0 01-1-1V5zm0 6a1 1 0 011-1h2a1 1 0 011 1v2a1 1 0 01-1 1H5a1 1 0 01-1-1v-2zm1 5a1 1 0 00-1 1v2a1 1 0 001 1h2a1 1 0 001-1v-2a1 1 0 00-1-1H5zm5-11a1 1 0 011-1h2a1 1 0 011 1v2a1 1 0 01-1 1h-2a1 1 0 01-1-1V5zm1 5a1 1 0 00-1 1v2a1 1 0 001 1h2a1 1 0 001-1v-2a1 1 0 00-1-1h-2zm-1 7a1 1 0 011-1h2a1 1 0 011 1v2a1 1 0 01-1 1h-2a1 1 0 01-1-1v-2zm7-13a1 1 0 00-1 1v2a1 1 0 001 1h2a1 1 0 001-1V5a1 1 0 00-1-1h-2zm-1 7a1 1 0 011-1h2a1 1 0 011 1v2a1 1 0 01-1 1h-2a1 1 0 01-1-1v-2zm1 5a1 1 0 00-1 1v2a1 1 0 001 1h2a1 1 0 001-1v-2a1 1 0 00-1-1h-2z" fill="#161619"/></svg>