<svg width="24" height="24" viewBox="0 0 24 24" fill="none" xmlns="http://www.w3.org/2000/svg"><path d="M11.991 11.323h-.865V9.277h.956c.475 0 .83.084 1.063.252.233.169.35.438.35.807 0 .337-.125.586-.375.746-.25.161-.626.241-1.13.241h.001zm1.315 1.537c-.17-.083-.393-.125-.67-.125h-1.51v2.15h1.407c.422 0 .74-.083.953-.25.213-.166.32-.42.32-.761 0-.256-.041-.468-.122-.636a.795.795 0 00-.378-.378zM22 12c0 5.523-4.477 10-10 10S2 17.523 2 12 6.477 2 12 2s10 4.477 10 10zm-6.07 1.88a2.27 2.27 0 00-.157-.85 1.668 1.668 0 00-.494-.67c-.223-.184-.511-.315-.864-.392.414-.17.72-.421.919-.752.199-.33.298-.705.298-1.123 0-.812-.312-1.423-.938-1.833-.394-.26-.887-.436-1.478-.531h.064V6.14h-.977v1.507a8.182 8.182 0 00-.22-.003h-.535V6.14h-.976v1.504H8.07v1.254l.92.195v5.974l-.92.195v1.248h2.502v1.349h.976V16.51h.755v1.349h.977v-1.387c.745-.08 1.338-.289 1.78-.625.58-.443.87-1.098.87-1.967z" fill="#BC0500"/></svg>