<svg width="24" height="24" viewBox="0 0 24 24" fill="none" xmlns="http://www.w3.org/2000/svg"><path d="M14 2.92v8.31c0 1.02-.83 1.85-1.85 1.85H3c-.55 0-1-.45-1-1V5.69C2 3.65 3.65 2 5.69 2h7.38c.52 0 .93.41.93.92z" fill="#BC0500"/><path d="M21.5 15.5c.28 0 .5.22.5.5v1c0 1.66-1.34 3-3 3 0-1.65-1.35-3-3-3s-3 1.35-3 3h-2c0-1.65-1.35-3-3-3s-3 1.35-3 3c-1.66 0-3-1.34-3-3v-2c0-.55.45-1 1-1h9.5a2.5 2.5 0 002.5-2.5V6c0-.55.45-1 1-1h.84c.72 0 1.38.39 1.74 1.01l.64 1.12c.09.16-.03.37-.22.37a2.5 2.5 0 00-2.5 2.5v3a2.5 2.5 0 002.5 2.5h2.5z" fill="#BC0500"/><path d="M10 20a2 2 0 11-4 0 2 2 0 014 0zm6 2a2 2 0 100-4 2 2 0 000 4zm6-8v-1.47c0-.35-.09-.69-.26-.99L20.29 9H19c-.55 0-1 .45-1 1v3c0 .55.45 1 1 1h3z" fill="#BC0500"/></svg>