<svg width="34" height="34" viewBox="0 0 34 34" fill="none" xmlns="http://www.w3.org/2000/svg"><rect width="34" height="34" rx="17" fill="#fff"/><path fill-rule="evenodd" clip-rule="evenodd" d="M12.333 14.362C12.333 11.953 14.423 10 17 10s4.667 1.953 4.667 4.362c0 2.39-1.49 5.18-3.814 6.177a2.175 2.175 0 01-1.706 0c-2.324-.998-3.814-3.787-3.814-6.177zm6.223.23c0 .845-.697 1.53-1.556 1.53-.86 0-1.556-.685-1.556-1.53 0-.846.697-1.531 1.556-1.531.86 0 1.556.685 1.556 1.53z" fill="#BC0500"/><path d="M24 17.011v4.337c0 .988 0 1.482-.264 1.799-.09.108-.199.198-.322.268-.361.204-.856.123-1.847-.04-.977-.16-1.466-.24-1.95-.2-.17.014-.339.039-.505.075-.475.102-.922.322-1.816.761-1.166.574-1.75.861-2.37.95-.187.026-.376.04-.565.039-.627-.001-1.24-.202-2.467-.605l-.299-.097c-.77-.253-1.155-.38-1.375-.68-.22-.3-.22-.7-.22-1.498v-3.773c0-1.27 0-1.904.38-2.245.066-.06.14-.112.218-.155.197-.108.426-.13.723-.087.19.934.546 1.857 1.04 2.69.756 1.28 1.88 2.423 3.32 3.041.838.36 1.8.36 2.639 0 1.44-.618 2.563-1.762 3.32-3.04.65-1.1 1.063-2.355 1.167-3.584.51.174.795.303.973.546.22.3.22.7.22 1.498z" fill="#BC0500"/></svg>