<svg width="24" height="24" viewBox="0 0 24 24" fill="none" xmlns="http://www.w3.org/2000/svg"><path d="M5.5 4A1.5 1.5 0 004 5.5v3A1.5 1.5 0 005.5 10h3A1.5 1.5 0 0010 8.5v-3A1.5 1.5 0 008.5 4h-3zm0 10A1.5 1.5 0 004 15.5v3A1.5 1.5 0 005.5 20h3a1.5 1.5 0 001.5-1.5v-3A1.5 1.5 0 008.5 14h-3zM14 5.5A1.5 1.5 0 0115.5 4h3A1.5 1.5 0 0120 5.5v3a1.5 1.5 0 01-1.5 1.5h-3A1.5 1.5 0 0114 8.5v-3zm1.5 8.5a1.5 1.5 0 00-1.5 1.5v3a1.5 1.5 0 001.5 1.5h3a1.5 1.5 0 001.5-1.5v-3a1.5 1.5 0 00-1.5-1.5h-3z" fill="#fff"/></svg>