<svg width="34" height="34" viewBox="0 0 34 34" fill="none" xmlns="http://www.w3.org/2000/svg"><rect width="34" height="34" rx="17" fill="#fff"/><path fill-rule="evenodd" clip-rule="evenodd" d="M25 17a8 8 0 11-16 0 8 8 0 0116 0zm-6.596-.444a.6.6 0 00-.808.888l1.052.956H13.8a.6.6 0 100 1.2h4.848l-1.052.956a.6.6 0 00.808.888l2.2-2a.6.6 0 000-.888l-2.2-2zm-1.96-3.96a.6.6 0 01-.04.848l-1.052.956H20.2a.6.6 0 110 1.2h-4.848l1.052.956a.6.6 0 01-.808.888l-2.2-2a.6.6 0 010-.888l2.2-2a.6.6 0 01.848.04z" fill="#BC0500"/></svg>